<?xml version="1.0" encoding="UTF-8"?>
<svg width="100pt" height="100pt" version="1.1" viewBox="0 0 100 100" xmlns="http://www.w3.org/2000/svg">
 <g fill="#f36337">
  <path d="m80.512 63.629c-2.6836-2.3789-5.8555-4.2188-9.3594-5.3203 4.4492 0.5 8.3516 1.2656 8.3516 1.2656-8.8789-4.8789-8.6484-22.398-8.6484-22.398 0.32422-7.0625-0.39844-12.566-1.7344-16.875h0.58594c0.96484 0 1.75-0.78516 1.75-1.75v-0.085937l-0.019531-0.082032-0.98438-4.2773c-0.050781-0.92188-0.8125-1.6523-1.7461-1.6523h-3.4844c-5.2734-6.9336-12.582-7.4531-14.648-7.4531-0.35938 0-0.5625 0.019531-0.5625 0.019531l-0.015625 0.054688-0.019532-0.050781s-0.20312-0.019532-0.5625-0.019532c-2.0625 0-9.375 0.51953-14.645 7.4492h-3.4805c-0.93359 0-1.6953 0.73438-1.7461 1.6523l-0.98438 4.2773-0.019532 0.082032v0.085937c0 0.96484 0.78516 1.75 1.75 1.75h0.57813c-1.3359 4.3086-2.0586 9.8086-1.7344 16.875 0 0 0.23047 17.52-8.6484 22.398 0 0 2.3906-0.16016 5.5859-0.21875-2.4258 1.082-4.6445 2.5312-6.6055 4.2734-5.3633 4.7461-8.7539 11.676-8.7539 19.406 0 3.0117 0.52734 5.2617 1.4727 6.9609 2.3789 4.2734 7.457 5.0039 13.953 5.0039 3.2109 0 6.7656-0.17188 10.508-0.17188h26.707c3.7422 0 7.2969 0.17188 10.508 0.17188 6.4961 0 11.574-0.73047 13.953-5.0039 0.94141-1.6992 1.4727-3.9492 1.4727-6.9609 0-7.7305-3.3984-14.656-8.7734-19.406zm-50.219-44.078c-0.55469 0-1-0.44922-1-1l1-4.3477c0-0.55469 0.44531-1 1-1l10.297-0.003906c0.097656-0.25781 0.20312-0.50781 0.32422-0.75 1.4609-3 4.5312-5.0742 8.0859-5.0742s6.625 2.0742 8.0859 5.0742c0.11719 0.24219 0.22656 0.49219 0.32422 0.75h10.293c0.55469 0 1 0.44531 1 1l1 4.3477c0 0.55078-0.44531 1-1 1l-11.293 0.003906c-0.097656 0.25781-0.20312 0.50781-0.32422 0.75-1.4609 3-4.5312 5.0742-8.0859 5.0742s-6.625-2.0781-8.0859-5.0742c-0.11719-0.24219-0.22656-0.49219-0.32422-0.75zm13.605 12.16s7.4961-2.5039 16.656-9.1016c0.046874-0.03125 0.09375-0.0625 0.13672-0.097656 0 0 0.16406 0.23438 0.39844 0.64062 0.79297 1.3594 2.4922 5.4219-0.72266 7.2773l5.8594 0.74609h0.10938l1.0742 0.19922c-0.015625 0.84766-0.074218 1.6836-0.19531 2.5039-0.33984 4.4922-1.4805 8.6289-3.2109 12.102-3.1484 6.3164-8.2461 10.418-14.008 10.418-8.7773 0-16.031-9.5352-17.172-21.906 0.003906 0 6.9336-1.1445 11.074-2.7812zm6.1016 43.145-6-9.7461c-4.3594-0.98828-7.7266-3.0195-9.0859-5.5312 3.5195 0.30469 6.4961 0.94922 7.2695 2.2188l-3.3047-7.3672c3.168 3.1641 6.9922 5.0117 11.117 5.0117 4.0312 0 7.7773-1.7695 10.898-4.7969l-2.3086 4.7969c0.70312-1.1484 3.1484-1.5391 6.1406-1.5391 0.30859 0 0.62109 0.003906 0.94141 0.011718-0.53906 3.2617-4.3828 6-9.6758 7.1992zm21.719 9.6523h-3.5352v3.5352h-3.9258v-3.5352h-3.5391v-3.9258h3.5391v-3.5391h3.9258v3.5391h3.5352z"/>
  <path d="m50 8.375c-4.418 0-8 3.5781-8 8s3.582 8 8 8 8-3.5781 8-8c0-4.418-3.582-8-8-8zm0 13.242c-2.8945 0-5.2383-2.3477-5.2383-5.2383 0-2.8945 2.3477-5.2344 5.2383-5.2344s5.2383 2.3438 5.2383 5.2344-2.3438 5.2383-5.2383 5.2383z"/>
 </g>
</svg>
