<?xml version="1.0" encoding="UTF-8"?>
<svg width="100pt" height="100pt" version="1.1" viewBox="0 0 100 100" xmlns="http://www.w3.org/2000/svg">
 <path d="m60.801 22.109c-0.70312 0-1.4453 0.078125-2.1875 0.23438l-13.711 8.1836c-0.15625 0.097656-0.33203 0.13672-0.50781 0.13672-0.33203 0-0.66406-0.17578-0.83984-0.46875-0.27344-0.46875-0.11719-1.0547 0.33203-1.3477l7.207-4.2969c-3.1445-1.6992-6.9141-2.4414-10.586-2.4414-8.8086 0-13.691 7.1484-13.691 15.957 0 5.5078 2.793 10.371 7.0312 13.242 1.2891 0.85938-0.46875 7.8516 0.27344 14.238 0.74219 6.3086 6.9531 12.012 8.5938 12.012 3.0078 0-0.83984-12.363 0.058594-16.875 1.1719-5.957 4.3359-6.5625 6.582-7.5 3.6133 0.66406 7.1094 1.2891 7.793 6.2695 1.2695 9.0039-2.0703 18.105 0.78125 18.105 3.9453 0 9.8047-11.152 10.117-26.543 0.097656-4.7266 7.1875-6.3086 7.1875-14.453 0.039063-7.9688-7.7734-14.453-14.434-14.453zm4.9414 21.875c-0.19531 0.25391-0.48828 0.37109-0.78125 0.37109-0.21484 0-0.41016-0.058594-0.60547-0.19531-0.42969-0.33203-0.50781-0.9375-0.17578-1.3672 1.2305-1.6016 4.1406-6.2891 2.9297-8.8477-3.0469-6.4844-6.1523-5.625-6.1914-5.625h0.019531l-0.66406-1.8359c0.19531-0.058594 4.7266-1.582 8.6133 6.6406 1.9531 4.082-2.6172 10.176-3.1445 10.859z" fill="#f36337"/>
</svg>
