<?xml version="1.0" encoding="UTF-8"?>
<svg width="100pt" height="100pt" version="1.1" viewBox="0 0 100 100" xmlns="http://www.w3.org/2000/svg">
 <g fill="#f36337">
  <path d="m53.492 42.418h39.668v21.809h0.011719v-21.812h-39.68z"/>
  <path d="m16.566 38.219c-0.81641 0.14453-1.1875 1.8867-0.82812 3.8906 0.32031 1.8438 1.1562 3.2695 1.9219 3.375 0.97656 2.625 2.5195 5.1719 4.4297 7.0391 1.082 1.0586 2.2773 1.8906 3.5547 2.3984 0.87891 0.35156 1.793 0.53906 2.7344 0.53906s1.8555-0.19141 2.7344-0.53906c1.3203-0.52344 2.5586-1.3984 3.668-2.5117 1.8633-1.8594 3.3633-4.3672 4.3242-6.9453 0.73438-0.21484 1.5078-1.5938 1.8203-3.3555 0.33984-1.9102 0.019531-3.5742-0.71875-3.8555 0.027344-0.46875 0.042969-0.9375 0.042969-1.4219-0.019531-6.9219-4.0781-10.945-10.477-11.375-5.5781-0.375-9.7812 1.8438-11.695 5.5273-0.64453 1.2383-1.0117 2.7891-1.1562 4.4727-0.21484 0.87891-0.33984 1.7891-0.33984 2.7305h0.019531v0.023438c-0.007812 0.003906-0.019531 0.007812-0.035156 0.007812zm1.2734 2.1094c0.082031-0.23438 0.1875-0.41797 0.32422-0.51562 0.023438-0.011719 0.046876-0.015625 0.0625-0.027344 0.039063-0.023437 0.082032-0.046875 0.125-0.050781h0.003907c0.039062-0.007813 0.078125-0.007813 0.11719-0.003906 0.11328 0.011719 0.23047 0.066406 0.34766 0.16016v-0.019531c0-0.007813 0.003907-0.011719 0.003907-0.019532 0.042969-0.42187 0.50781-3.5 3.0273-4.4219 0.027344-0.011719 0.066407-0.015626 0.09375-0.027344 0.16797-0.054688 0.33594-0.10938 0.52344-0.14453 0.22656-0.042968 0.46484-0.070312 0.71875-0.082031 0.23828-0.007812 0.48828-0.003906 0.75391 0.019531 0 0 1.8203 0.66797 4.0938 0.67578 1.0273 0.003906 2.1445-0.125 3.2305-0.51562 0.19141-0.003907 0.38281-0.007813 0.56641-0.007813 0.17578 0 0.34766 0.003906 0.51172 0.007813 1.4453 0.054687 2.4375 0.80078 3.4688 1.2852h0.003906c0-0.003906 0-0.007813-0.003906-0.015625-0.046875-0.46875-0.39844-0.94922-0.38281-1.2695 0.011718 0.003906 0.019531 0.007812 0.027343 0.011719 0.15234 0.046874 0.29688 0.11328 0.42969 0.18359 0.74609 0.79688 1.4688 2.1289 2.043 4.3086 0 0.011719 0 0.019531 0.003906 0.027344 0.003906 0 0.003906 0 0.003906-0.003907 0-0.003906 0 0 0.003906-0.003906v0.007813l0.007813-0.011719c0.003906-0.003906 0.007812-0.003906 0.011719-0.007812 0.0625-0.046876 0.125-0.082032 0.1875-0.10547 0.050781-0.019531 0.10547-0.03125 0.15625-0.035157 0.03125-0.003906 0.066406-0.003906 0.097656 0 0.039062 0.007813 0.074218 0.019532 0.10938 0.035157 0.47656 0.22266 0.68359 1.3359 0.45312 2.6094-0.17578 0.97266-0.55469 1.7734-0.95703 2.1211-0.078124 0.066406-0.16406 0.11719-0.24219 0.14844-0.011719 0.003906-0.023437 0.003906-0.039063 0.007813l-0.10547 0.011718h-0.003906-0.027344c-0.015625 0-0.03125 0.003906-0.046875 0.003906-0.007813 0-0.015625 0.003907-0.019531 0.003907-0.078126-0.011719-0.15234-0.054688-0.21875-0.11328-0.007813-0.007813-0.015626-0.011719-0.023438-0.015626v0.003907c-0.88281 2.75-2.5664 5.4922-4.6992 7.1602-0.62109 0.48828-1.2852 0.87891-1.9766 1.1562-0.011719 0.007813-0.027344 0.007813-0.039063 0.011719l-0.78516 0.23828c-0.019531 0.007813-0.042969 0.011719-0.0625 0.019531-0.078125 0.019532-0.14844 0.050782-0.23047 0.066406-0.023437 0.007813-0.050781 0.007813-0.074219 0.011719l-0.30469 0.03125c-0.027344 0.003907-0.050781 0.003907-0.074219 0.007813-0.21484 0.023437-0.42969 0.0625-0.64453 0.0625h-0.011719c-1.4766 0-2.8711-0.58594-4.1172-1.5391-2.1641-1.6562-3.8789-4.4258-4.7734-7.207-0.003906-0.003906-0.003906-0.011719-0.003906-0.015625-0.074219 0.066406-0.15234 0.10938-0.23828 0.12891-0.039063 0.003907-0.074219 0.007813-0.11328 0-0.14844-0.015625-0.30469-0.097656-0.44922-0.24609-0.37891-0.375-0.71875-1.1367-0.88281-2.0469-0.011719-0.058593-0.015625-0.12109-0.023437-0.17969-0.007813-0.64844 0.019531-1.2656 0.0625-1.875z"/>
  <path d="m19.23 44.664c-0.039063 0.003907-0.074219 0.007813-0.11328 0"/>
  <path d="m5.543 69.219c2.1641 4.0977 13.559 5.3594 22.773 5.3594h0.015625 0.015625c7.6289 0 16.75-0.86719 20.891-3.4922-0.53125-0.74219-0.84766-1.6484-0.84766-2.6289v-9.3008c-0.125-0.15625-0.25391-0.3125-0.37891-0.45312-2.2188-2.4844-4.4531-2.6836-5.1289-2.8398-0.16797-0.039062-0.33984-0.066406-0.51172-0.097656 0.0625 0.11328 0.12891 0.23047 0.18359 0.35156 0.24219 0.51953 0.41406 1.0625 0.50391 1.6133 0.15625 0.054687 0.30078 0.11719 0.44141 0.19141 1.4727 0.78906 2.0312 2.6289 1.2422 4.1016-0.52734 0.98828-1.5547 1.6016-2.6758 1.6016-0.49609 0-0.98828-0.12109-1.4258-0.35938-0.71484-0.38281-1.2344-1.0195-1.4727-1.793-0.23438-0.77344-0.15234-1.5938 0.22656-2.3086 0.37891-0.70703 1.0234-1.2305 1.8008-1.4609-0.19141-0.75781-0.625-1.6172-1.3203-2.1992-1.1406-0.066406-2.1953-0.11328-2.9102-0.33594-0.15625 1.3164-3.9766 5.6328-6.4805 8.3477l-1.0859-4.1875c0.81641-0.48047 0.99219-1.5391 0.99219-2.4258h-4.1133c0 0.875 0.17969 1.9258 0.97656 2.4102l-1.0664 4.1953c-2.5039-2.7109-6.3242-7.0273-6.4805-8.3438-0.69141 0.21484-1.6953 0.26563-2.7852 0.32813-0.76562 0.57812-1.332 1.4258-1.5352 2.1484 0.24219 0.17969 0.44141 0.42578 0.57031 0.71094 1.168 0.55078 2.1992 1.7109 2.9883 3.3594 0.13281 0.27734 0.14844 0.59375 0.050782 0.87891 0.47266 1.2188 0.74219 2.5469 0.74219 3.6641 0 1.5664 0 3.0469-1.707 3.4258-0.1875 0.15234-0.41406 0.23828-0.66016 0.23828h-1.1406c-0.57031 0-1.0391-0.46484-1.0391-1.0352v-0.039062c0.023438-0.55078 0.48438-0.99609 1.0352-0.99609h1.1406c0.11719 0 0.23047 0.019532 0.33984 0.058594 0.070313-0.019531 0.089844-0.035156 0.09375-0.035156 0.12891-0.22656 0.12891-1.1602 0.12891-1.6133 0-0.90625-0.22656-2.0039-0.625-3.0234-0.20703-0.11719-0.375-0.29688-0.47656-0.50781-0.69141-1.4492-1.6328-2.3828-2.3945-2.3828-0.78125 0-1.7695 1.0117-2.457 2.5156-0.11328 0.24609-0.30859 0.44531-0.55469 0.5625-0.35938 0.97656-0.55859 1.9805-0.55859 2.8359 0 0.37891 0 1.3828 0.14453 1.6172 0.003907 0 0.035157 0.019531 0.125 0.042969 0.11719-0.046875 0.24609-0.070313 0.37109-0.070313h1.1445c0.53125 0 0.97656 0.40625 1.0312 0.93359l0.007812 0.0625c0 0.61328-0.46484 1.0781-1.0352 1.0781h-1.1445c-0.22656 0-0.44531-0.074219-0.625-0.21484-0.65234-0.12109-1.1133-0.41016-1.4023-0.87891-0.35547-0.56641-0.41797-1.3125-0.41797-2.5703 0-1.1055 0.25391-2.3828 0.71875-3.6016-0.066406-0.26172-0.046875-0.53125 0.066406-0.77734 0.48438-1.0586 1.0977-1.9648 1.7773-2.6172 0.375-0.35938 0.77734-0.64844 1.1953-0.85938 0.15234-0.35938 0.41406-0.66016 0.73828-0.85156 0.10547-0.58984 0.35156-1.2031 0.70312-1.7773-0.16016 0.027343-0.32031 0.054687-0.47656 0.089843-0.69531 0.16406-3.0625 0.37109-5.3555 3.1055-1.1797 1.4023-2.3359 3.4688-3.2344 6.5625-0.24609 0.84766-0.25 1.7383-0.046874 2.5703 0.089843 0.39453 0.21094 0.76953 0.39453 1.1172z"/>
  <path d="m43.703 60.602c0 2.1875-3.2773 2.1875-3.2773 0 0-2.1836 3.2773-2.1836 3.2773 0"/>
  <path d="m93.707 40.715h-40.715c-0.71484 0-1.3281 0.53125-1.3281 1.2227v26.527c0 0.69531 0.61328 1.2812 1.3281 1.2812h16.031c-0.019532 0.39844-0.14844 2.1133-0.98438 2.9453-0.65625 0.65234-1.5742 1.2695-1.2188 1.5859 0.089844 0.19141 0.49609 0.30469 1.4336 0.30469h5.1094 0.32422 5.1094c1.0664 0 1.4375-0.17188 1.4414-0.42578h-0.035156l0.003906-0.085938h-0.039062c-0.046875-0.33984-0.75781-0.84766-1.293-1.3828-0.83984-0.83203-0.96484-2.5508-0.98047-2.9453h15.812c0.71484 0 1.293-0.58594 1.293-1.2812v-26.523c0-0.69141-0.57812-1.2227-1.293-1.2227zm-20.375 28.438c-0.82031 0-1.4883-0.65234-1.4883-1.4492 0-0.80078 0.66797-1.4531 1.4883-1.4531 0.82031 0 1.4883 0.65234 1.4883 1.4531 0 0.79688-0.66797 1.4492-1.4883 1.4492zm19.84-4.9258h-0.011719v0.003907h-39.68v-21.812h0.011719v-0.003907h39.68z"/>
  <path d="m60.957 49.777c0.007813-0.011719 0.015625-0.023438 0.023438-0.035156 0.015625-0.027344 0.03125-0.054688 0.054687-0.078126 0.015625-0.019531 0.03125-0.035156 0.046875-0.054687 0.019531-0.019531 0.039063-0.042969 0.0625-0.0625 0.019531-0.015625 0.039063-0.03125 0.0625-0.046875 0.019531-0.015625 0.042969-0.03125 0.066407-0.042969 0.023437-0.015625 0.050781-0.027343 0.074218-0.035156 0.015625-0.007813 0.027344-0.015625 0.046875-0.023437 0.007813-0.003907 0.019531-0.003907 0.027344-0.007813 0.027344-0.007813 0.054687-0.015625 0.078125-0.019531 0.023438-0.007813 0.050781-0.011719 0.078125-0.015625 0.023437-0.003907 0.050781-0.003907 0.078125-0.003907s0.054688-0.003906 0.082031 0c0.023438 0 0.050781 0.007813 0.074219 0.011719 0.027344 0.003907 0.054688 0.007813 0.078125 0.015625 0.023437 0.007813 0.050781 0.015625 0.074219 0.023438 0.027344 0.011718 0.054687 0.019531 0.078125 0.03125 0.007812 0.003906 0.015625 0.007812 0.023437 0.011718 0.015625 0.007813 0.027344 0.019532 0.042969 0.027344 0.023437 0.015625 0.046875 0.03125 0.070313 0.046875 0.019531 0.015625 0.039062 0.035157 0.058593 0.054688s0.039063 0.035156 0.054688 0.054687c0.019531 0.019532 0.035156 0.042969 0.050781 0.066406 0.015625 0.019532 0.027344 0.039063 0.039062 0.0625 0.015626 0.027344 0.027344 0.054688 0.039063 0.082032 0.007813 0.015625 0.015625 0.027344 0.019531 0.039062l1.3945 3.7422 2.3945-5.1445c0.003906-0.011718 0.011719-0.019531 0.019531-0.03125 0.015625-0.027343 0.027344-0.054687 0.046875-0.078124 0.015625-0.019532 0.027344-0.039063 0.042969-0.058594 0.019531-0.019532 0.035156-0.039063 0.054687-0.0625 0.019531-0.019532 0.039063-0.039063 0.058594-0.054688s0.039063-0.03125 0.0625-0.046875 0.050781-0.03125 0.074219-0.046875c0.011718-0.007812 0.019531-0.015625 0.03125-0.019531 0.011718-0.003906 0.023437-0.007813 0.035156-0.011719 0.027344-0.011718 0.050781-0.019531 0.078125-0.027344 0.023437-0.007812 0.050781-0.015624 0.078125-0.019531 0.023438-0.003906 0.050781-0.007812 0.074219-0.011719 0.027343-0.003906 0.054687-0.003906 0.082031-0.003906 0.023438 0 0.050781 0 0.078125 0.003906 0.027344 0.003907 0.054687 0.007813 0.078125 0.011719 0.023438 0.003907 0.050781 0.011719 0.074219 0.019531 0.027343 0.007813 0.050781 0.015626 0.078125 0.027344 0.011718 0.003906 0.023437 0.007813 0.039062 0.011719 0.011719 0.007813 0.023438 0.015625 0.035156 0.019531 0.023438 0.011719 0.046876 0.027344 0.070313 0.042969s0.046875 0.03125 0.066406 0.046875 0.039063 0.035156 0.058594 0.054688c0.019531 0.019531 0.039063 0.039062 0.054687 0.058593 0.015626 0.019531 0.03125 0.039063 0.046876 0.0625 0.015624 0.023438 0.03125 0.046875 0.046874 0.074219 0.007813 0.011719 0.015626 0.019531 0.019532 0.03125l1.75 3.6641h4.2812c0.51172-1.7695 0.054687-3.6719-1.3086-5.0156-0.070312-0.070313-0.14844-0.13672-0.22656-0.20313-1.9102-1.6758-4.7617-1.7227-6.7148-0.13281-0.13672 0.10938-0.26953 0.23047-0.39453 0.35156-0.125-0.125-0.25781-0.24219-0.39453-0.35156-1.9531-1.5898-4.8086-1.543-6.7188 0.13281-0.074219 0.066407-0.15234 0.12891-0.22656 0.20313-1.3906 1.3711-1.8438 3.3242-1.2773 5.125h3.1367z"/>
  <path d="m68.953 53.773h-0.003906c-0.066407 0-0.13672-0.011719-0.19922-0.027344-0.019531-0.003906-0.03125-0.011719-0.050781-0.015625-0.054688-0.019531-0.10156-0.039063-0.14844-0.066407-0.011719-0.007812-0.023437-0.011718-0.035156-0.019531-0.058594-0.035156-0.10547-0.078125-0.15234-0.12891-0.011719-0.011719-0.019531-0.023437-0.03125-0.035156-0.039062-0.046875-0.070312-0.09375-0.097656-0.14844-0.003906-0.007812-0.011719-0.015625-0.015625-0.023437l-1.2266-2.5625-2.4844 5.3359c0 0.003907 0 0.003907-0.003906 0.003907v0.003906l-0.003906 0.003906c-0.027344 0.0625-0.070312 0.12109-0.11328 0.17188-0.011719 0.015625-0.019531 0.027344-0.03125 0.039063-0.046875 0.050781-0.097657 0.097656-0.15625 0.13281-0.046875 0.027344-0.097657 0.054688-0.14844 0.070312-0.007812 0.003907-0.019531 0.003907-0.023437 0.003907-0.085938 0.027343-0.17188 0.046875-0.25781 0.046875h-0.003906c-0.070313 0-0.14453-0.011719-0.21484-0.03125-0.019531-0.007813-0.039062-0.015625-0.058593-0.019532-0.023438-0.007812-0.046876-0.015624-0.070313-0.023437-0.03125-0.015625-0.0625-0.035156-0.089844-0.054687-0.011719-0.007813-0.023437-0.015626-0.035156-0.019532-0.0625-0.042968-0.11328-0.09375-0.15625-0.14453-0.011719-0.011719-0.019531-0.023437-0.027344-0.035156-0.042969-0.058594-0.082031-0.12109-0.10938-0.19141 0-0.003906-0.003906-0.003906-0.003906-0.007812l-0.003906-0.003906v-0.003906l-1.4453-3.875-0.70312 1.3047c-0.003906 0.007813-0.011718 0.011719-0.015625 0.019531-0.03125 0.050782-0.066406 0.10156-0.10938 0.14453-0.003906 0.007812-0.007812 0.015624-0.015625 0.019531-0.046875 0.046875-0.097656 0.085937-0.15234 0.11719-0.015626 0.011719-0.03125 0.019532-0.046876 0.027344-0.042968 0.023438-0.089843 0.042969-0.13672 0.058594-0.019532 0.003906-0.035156 0.011718-0.054688 0.015625-0.058594 0.015625-0.12109 0.023437-0.1875 0.023437h-0.007812-0.003906-2.7734c0.17578 0.23438 0.36719 0.46484 0.58594 0.68359l6.0312 5.9844c0.63281 0.625 1.6602 0.625 2.293 0l6.0312-5.9844c0.25391-0.25 0.47266-0.51562 0.66797-0.78906z"/>
  <path d="m79.379 48.953h10.105c0.60547 0 1.0938-0.48828 1.0938-1.0938 0-0.60156-0.48828-1.0938-1.0938-1.0938l-10.105 0.003906c-0.60547 0-1.0938 0.48828-1.0938 1.0938 0 0.60156 0.48828 1.0898 1.0938 1.0898z"/>
  <path d="m79.379 54.414h10.105c0.60547 0 1.0938-0.48828 1.0938-1.0938 0-0.60547-0.48828-1.0938-1.0938-1.0938l-10.105 0.003907c-0.60547 0-1.0938 0.48828-1.0938 1.0938 0 0.60156 0.48828 1.0898 1.0938 1.0898z"/>
  <path d="m79.379 59.879h10.105c0.60547 0 1.0938-0.48828 1.0938-1.0938 0-0.60156-0.48828-1.0938-1.0938-1.0938h-10.105c-0.60547 0-1.0938 0.48828-1.0938 1.0938 0 0.60547 0.48828 1.0938 1.0938 1.0938z"/>
 </g>
</svg>
