<?xml version="1.0" encoding="UTF-8"?>
<svg width="100pt" height="100pt" version="1.1" viewBox="0 0 100 100" xmlns="http://www.w3.org/2000/svg">
 <path d="m93.441 87.25c3.5938-11.207-5.1992-20.75-10.457-23.004-1.9961-0.85547-4.2148-1.5234-6.1992-2.0234-0.28906-4.2852-4.5586-15.543-2.4258-32.211 4.8945-38.309-53.617-38.309-48.719 0 2.1289 16.668-2.1406 27.926-2.4258 32.211-1.9844 0.5-4.207 1.1719-6.1992 2.0234-5.2578 2.2539-14.051 11.797-10.457 23.004 4.9062 15.305 81.98 15.305 86.883 0zm-22.508-12.082h5.7891v4.6641h4.6641v5.7891h-4.6641v4.6641h-5.7891v-4.6641h-4.6641v-5.7891h4.6641zm-20.934 4.3438 16.688-17.133-4.5859-6.5938c-6.1211 7.9336-18.09 7.9336-24.211 0l-4.5859 6.5938 16.688 17.133zm16.348-36.344c-2.4492 8.7734-8.8438 15.031-16.348 15.031s-13.895-6.2578-16.348-15.031c-2.918-0.84375-4.5078-5.8906-4.9219-7.8945-0.42969-2.0625 0.53516-5.1055 3.9219-2.0898 0.24609-3.6836 1.1562-7.1172 2.5625-10.094 4.3555-2.582 6.1445-2.2305 10.164-0.24219 4.5195 2.2305 18.938 9.0195 21.891 10.406 3.4414-3.1289 4.4258-0.058594 3.9922 2.0234-0.41406 2-2 7.0508-4.9219 7.8945z" fill="#f36337" fill-rule="evenodd"/>
</svg>
